<?xml version="1.0" standalone="no"?>
<!DOCTYPE svg PUBLIC "-//W3C//DTD SVG 20010904//EN"
 "http://www.w3.org/TR/2001/REC-SVG-20010904/DTD/svg10.dtd">
<svg version="1.0" xmlns="http://www.w3.org/2000/svg"
 width="712.000000pt" height="660.000000pt" viewBox="0 0 712.000000 660.000000"
 preserveAspectRatio="xMidYMid meet">
<metadata>
Created by potrace 1.16, written by Peter Selinger 2001-2019
</metadata>
<g transform="translate(0.000000,660.000000) scale(0.100000,-0.100000)"
fill="#000000" stroke="none">
<path d="M1495 6245 c-19 -18 -25 -35 -25 -68 0 -25 -6 -62 -14 -84 -8 -22
-19 -80 -25 -129 -6 -49 -18 -114 -26 -144 -8 -30 -15 -68 -15 -84 0 -16 -7
-65 -16 -109 -12 -60 -14 -100 -9 -161 11 -110 11 -286 1 -430 -7 -107 -11
-121 -32 -141 -27 -25 -54 -83 -54 -117 0 -13 15 -59 32 -103 l33 -80 3 -333
c2 -293 1 -333 -13 -338 -9 -4 -27 -25 -40 -49 -50 -84 -22 -246 56 -332 l39
-43 0 -562 c0 -310 5 -684 10 -832 14 -364 0 -488 -78 -673 -30 -71 -52 -80
-99 -43 -14 11 -34 20 -45 20 -20 0 -55 20 -101 57 -35 28 -52 29 -75 3 -18
-23 -82 -55 -122 -64 -41 -9 -125 -90 -148 -144 l-21 -49 -68 -6 c-37 -4 -104
-7 -148 -7 -95 0 -136 -19 -161 -77 -19 -43 -21 -142 -15 -668 2 -207 0 -319
-8 -337 l-11 -28 -150 0 -150 0 0 -45 0 -45 3560 0 3560 0 0 45 0 45 -154 0
c-85 0 -157 4 -160 8 -15 25 -27 233 -35 612 -7 367 -11 432 -26 475 -19 54
-58 151 -81 202 -8 17 -14 37 -14 45 0 7 -6 22 -13 33 -24 35 -66 178 -72 245
-4 36 -2 412 4 836 11 823 8 774 60 889 30 65 44 107 48 151 4 37 1 47 -31 82
l-37 40 -11 262 c-12 292 -8 335 43 424 41 73 50 95 56 147 5 44 3 49 -34 90
-22 24 -44 54 -47 66 -4 13 -7 154 -7 315 0 314 0 317 -60 486 -11 30 -19 63
-19 73 0 11 -8 34 -17 52 -18 34 -25 75 -47 276 -10 85 -19 128 -30 139 -35
36 -44 1 -77 -298 -6 -52 -17 -126 -25 -165 -9 -38 -19 -99 -24 -135 -4 -36
-15 -96 -24 -135 -12 -54 -16 -133 -16 -352 l0 -283 -36 -47 c-36 -47 -36 -49
-31 -118 3 -38 18 -104 33 -145 31 -88 34 -161 20 -484 -7 -171 -11 -200 -26
-213 -76 -64 -80 -70 -80 -123 0 -33 9 -70 25 -106 14 -30 25 -60 25 -67 0 -7
7 -31 15 -54 12 -36 13 -136 5 -730 -10 -717 -21 -947 -44 -992 -13 -23 -53
-106 -160 -332 l-36 -76 -48 -6 c-26 -4 -63 -3 -82 1 l-35 8 0 150 c-1 82 -2
157 -3 167 -3 26 -46 38 -148 42 -119 4 -134 9 -134 44 0 16 7 34 15 41 30 25
15 52 -87 154 -88 86 -112 105 -168 125 -36 14 -78 35 -93 48 -33 27 -63 29
-88 7 -15 -14 -20 -13 -55 5 -22 11 -50 25 -64 32 -56 26 -55 24 -53 85 1 33
3 75 4 94 3 35 -10 67 -56 150 -23 39 -26 57 -28 160 -2 109 0 118 27 173 16
31 32 60 37 63 16 10 9 51 -13 80 -22 27 -23 39 -29 269 -3 132 -9 247 -12
255 -4 8 -11 84 -16 169 -10 170 -19 194 -64 174 -26 -12 -61 -101 -72 -188
-4 -27 -14 -77 -21 -110 -18 -76 -54 -381 -54 -460 0 -41 -7 -74 -20 -100 -24
-47 -25 -73 -5 -114 8 -17 22 -45 30 -62 9 -18 15 -59 15 -100 0 -67 -1 -69
-20 -59 -11 6 -64 54 -117 107 -125 124 -196 183 -264 221 -65 37 -183 82
-214 82 -12 0 -48 9 -80 20 -32 11 -70 20 -85 20 -26 0 -28 3 -32 51 -6 59
-17 74 -52 65 -20 -5 -26 -14 -31 -44 -10 -60 -17 -66 -85 -74 -35 -4 -81 -14
-102 -23 -21 -8 -48 -15 -59 -15 -11 0 -37 -9 -57 -19 -20 -11 -64 -32 -97
-47 -55 -26 -81 -41 -139 -84 -12 -8 -77 -71 -145 -140 l-123 -125 6 -50 6
-51 -62 -28 c-73 -34 -101 -65 -108 -120 -6 -45 -4 -44 -131 -85 -53 -17 -109
-37 -125 -46 -16 -8 -40 -15 -53 -15 -21 0 -23 3 -17 38 16 107 17 150 4 202
-11 44 -12 88 -4 220 11 200 10 503 -4 700 -31 462 -49 593 -84 614 -26 16
-63 -32 -72 -91 -3 -27 -12 -59 -19 -73 -7 -14 -16 -48 -20 -75 -4 -28 -13
-71 -21 -97 -22 -68 -35 -188 -43 -398 -6 -140 -12 -197 -26 -234 -16 -44 -16
-55 -5 -100 7 -28 21 -69 31 -91 25 -54 28 -365 4 -385 -28 -24 -35 -80 -20
-165 14 -81 21 -487 9 -519 -8 -20 -32 -21 -53 -2 -9 8 -45 26 -81 41 -42 17
-76 39 -97 63 l-32 37 -38 -38 c-25 -24 -48 -37 -65 -37 -32 0 -40 10 -43 59
-20 256 -25 481 -25 1082 0 691 0 707 20 732 11 14 20 30 20 37 0 6 7 25 16
43 21 40 21 152 -1 203 -8 20 -30 53 -48 74 l-34 36 -6 190 c-11 305 -9 422 7
452 38 69 59 132 63 193 6 71 5 72 -61 119 -19 14 -38 32 -41 40 -13 31 -24
424 -15 492 17 114 -3 227 -101 595 -10 40 -19 97 -19 127 0 101 -27 130 -75
81z m45 -354 c5 -11 10 -32 10 -47 0 -15 9 -55 19 -88 10 -34 24 -92 30 -131
6 -38 14 -82 17 -97 7 -32 -4 -36 -101 -40 l-60 -3 2 85 c1 47 8 112 17 145 9
32 16 73 16 90 0 40 19 105 30 105 5 0 14 -9 20 -19z m4916 -388 c9 -32 24
-83 34 -113 58 -175 59 -204 8 -231 -27 -14 -106 -13 -124 2 -18 15 -10 134
17 243 10 44 19 94 19 111 0 32 6 45 21 45 5 0 16 -26 25 -57z m-4875 -123 c4
-8 12 -98 19 -200 6 -102 14 -195 16 -207 4 -16 -1 -26 -21 -39 -32 -21 -118
-25 -136 -7 -19 19 2 387 25 430 21 41 80 55 97 23z m4924 -332 c11 -31 21
-334 12 -345 -6 -8 -35 -13 -77 -13 -46 0 -70 4 -73 13 -2 6 -2 84 1 172 5
183 6 185 84 185 30 0 50 -5 53 -12z m-4792 -230 c8 -23 -9 -115 -27 -143 -59
-90 -241 -73 -287 28 -25 57 -24 92 3 111 29 21 303 24 311 4z m4872 -248 c26
-22 14 -104 -22 -142 -62 -65 -227 -64 -263 1 -17 33 -12 126 8 144 31 28 242
26 277 -3z m-4958 -47 c15 -20 24 -139 26 -368 l2 -190 -105 0 -105 0 -6 110
c-11 194 -10 450 2 462 16 16 171 5 186 -14z m4852 -232 c22 -14 29 -97 30
-352 1 -271 10 -249 -100 -249 l-70 0 3 283 c3 301 5 311 51 320 40 8 72 7 86
-2z m-4764 -450 c29 -16 30 -20 33 -97 1 -43 -2 -86 -8 -94 -7 -12 -30 -14
-118 -12 -84 3 -118 -1 -151 -14 -41 -16 -43 -16 -69 3 -23 17 -28 30 -36 97
-11 96 -2 120 51 134 57 16 260 4 298 -17z m4863 -243 c17 -17 15 -41 -9 -97
l-22 -48 -135 -8 c-150 -8 -156 -6 -167 55 -11 63 33 89 155 90 30 1 73 5 95
9 58 13 70 12 83 -1z m-4911 -59 c8 -8 9 -139 6 -447 -3 -260 -1 -536 6 -682
6 -135 16 -355 21 -490 13 -303 20 -356 70 -495 38 -106 51 -158 42 -167 -4
-4 -107 -7 -228 -6 l-219 3 3 44 c2 24 12 57 23 75 10 17 19 39 19 49 0 10 8
39 19 65 60 152 61 161 61 522 0 184 -4 459 -10 610 -5 151 -12 408 -15 570
-6 285 -6 296 14 328 20 32 22 32 99 32 43 0 83 -5 89 -11z m704 -60 c4 -13 7
-52 8 -86 1 -51 -2 -64 -18 -72 -13 -7 -24 -6 -36 3 -19 14 -19 12 11 164 6
29 26 24 35 -9z m4126 -159 c12 -25 8 -194 -17 -870 -5 -146 -10 -347 -10
-446 0 -155 -2 -184 -16 -195 -21 -17 -126 -18 -146 -1 -14 12 -16 90 -11 755
4 621 8 746 20 765 13 21 20 23 91 20 71 -3 78 -5 89 -28z m-1708 -207 c-2
-228 -6 -258 -34 -258 -19 0 -20 7 -20 150 1 127 16 269 32 298 18 31 23 -15
22 -190z m-2411 95 c8 -8 12 -55 12 -145 l0 -133 -40 0 c-30 0 -42 5 -51 21
-15 30 -7 232 10 253 16 19 52 21 69 4z m28 -389 c3 -5 0 -33 -5 -62 -6 -28
-13 -125 -16 -215 -2 -90 -7 -167 -10 -172 -4 -6 -15 -10 -25 -10 -23 0 -27
19 -35 180 -6 114 -22 207 -44 248 -6 11 -11 25 -11 31 0 19 134 19 146 0z
m1534 10 c36 -5 97 -22 135 -36 39 -14 84 -31 100 -37 27 -10 82 -48 163 -113
15 -12 24 -25 20 -29 -7 -7 -97 1 -313 27 -106 13 -600 6 -660 -9 -66 -17
-175 -26 -175 -14 0 9 74 68 125 99 37 22 129 64 190 86 95 33 292 46 415 26z
m881 -86 c6 -6 3 -18 -10 -34 -19 -25 -38 -127 -44 -233 -1 -27 -7 -51 -13
-53 -8 -3 -13 36 -16 125 -4 114 -7 132 -27 159 -13 18 -20 36 -16 43 9 14
110 9 126 -7z m-772 -193 c88 -6 188 -17 223 -25 35 -8 79 -15 98 -15 19 0 47
-6 61 -14 14 -7 42 -16 62 -20 43 -8 67 -38 67 -83 0 -43 -16 -50 -29 -13 -15
44 -38 49 -66 14 -26 -32 -34 -29 -50 19 -14 45 -48 49 -70 8 -20 -39 -43 -40
-56 -1 -9 25 -16 30 -45 30 -23 0 -37 -6 -44 -20 -8 -14 -21 -20 -45 -20 -30
0 -37 5 -55 40 -26 51 -54 53 -74 6 -10 -24 -22 -35 -42 -39 -39 -7 -60 6 -84
53 -26 52 -54 53 -70 4 -13 -37 -40 -54 -89 -54 -32 0 -46 13 -56 53 -13 48
-78 28 -94 -30 -7 -26 -11 -28 -56 -28 -47 0 -49 1 -57 32 -16 60 -88 54 -88
-8 0 -19 -6 -30 -20 -34 -27 -9 -36 -1 -44 35 -3 17 -12 33 -21 36 -23 9 -65
-23 -65 -50 0 -61 -39 -77 -65 -27 -8 17 -20 33 -25 36 -16 10 -40 -14 -40
-41 0 -12 -4 -26 -10 -29 -12 -7 -51 54 -48 75 4 20 105 69 146 69 18 1 49 8
69 16 23 10 99 19 212 25 184 11 391 17 403 12 4 -1 79 -7 167 -12z m-469
-237 c0 -5 -33 -24 -72 -43 -45 -21 -98 -58 -140 -99 -51 -47 -81 -67 -116
-77 -26 -7 -62 -19 -80 -26 -66 -26 -90 27 -52 116 31 72 44 83 107 91 31 4
68 12 82 17 42 18 271 35 271 21z m751 -29 c31 -8 70 -14 85 -14 16 -1 47 -9
69 -20 22 -11 46 -19 52 -20 17 0 25 -37 21 -91 -3 -40 -5 -44 -28 -43 -70 4
-162 44 -236 103 -42 33 -93 68 -115 78 -21 9 -39 21 -39 26 0 12 116 0 191
-19z m459 8 c34 -27 17 -42 -46 -42 -64 0 -75 22 -21 45 41 18 41 18 67 -3z
m-1793 -28 c5 -14 -39 -26 -61 -18 -13 5 -14 9 -5 21 14 16 61 14 66 -3z
m-614 -214 l-2 -195 -31 -28 c-17 -15 -35 -25 -40 -22 -6 4 -10 52 -11 108 -1
105 -12 242 -24 289 -6 22 -3 29 20 41 17 8 39 12 59 8 l31 -7 -2 -194z m1662
188 c69 -14 135 -41 135 -56 0 -4 -116 -7 -257 -7 -142 0 -293 -4 -335 -8
-151 -15 -72 38 112 76 88 18 241 16 345 -5z m780 -88 c6 -5 12 -86 13 -204
l3 -196 -30 -30 c-35 -35 -57 -37 -111 -9 l-40 21 -67 -21 c-72 -21 -101 -19
-173 12 -39 17 -120 83 -120 98 0 14 60 10 105 -7 38 -14 103 -26 222 -40 40
-5 59 -2 78 10 23 15 25 22 25 95 0 77 -1 79 -41 124 -37 42 -40 51 -37 94 3
48 3 48 48 60 45 12 106 9 125 -7z m-1817 -207 l3 -202 -25 -7 c-55 -14 -56
-12 -56 204 0 109 3 202 7 206 4 4 21 6 38 4 l30 -3 3 -202z m1092 146 c25 -5
83 -13 130 -19 47 -5 126 -21 175 -35 50 -15 109 -31 133 -37 50 -13 125 -78
120 -104 -6 -31 -27 -26 -49 10 -23 39 -39 45 -59 21 -18 -21 -26 -19 -57 15
-32 37 -47 37 -75 5 -12 -14 -29 -25 -38 -25 -18 0 -43 25 -53 53 -11 31 -35
30 -72 -2 -20 -17 -38 -31 -41 -31 -3 0 -26 14 -50 32 -44 31 -45 32 -73 15
-16 -9 -43 -17 -59 -17 -29 0 -62 21 -62 41 0 21 -47 8 -58 -16 -10 -22 -18
-25 -66 -25 -46 0 -56 3 -70 25 -21 32 -54 33 -62 1 -4 -19 -14 -25 -42 -29
-42 -5 -59 5 -64 36 -2 16 -10 22 -28 22 -19 0 -30 -10 -48 -42 -28 -51 -47
-54 -81 -12 -30 35 -49 32 -74 -11 -25 -42 -54 -48 -84 -16 -28 31 -42 26 -90
-28 -23 -27 -39 -36 -62 -36 -33 0 -55 27 -45 55 6 15 81 55 105 55 7 0 42 9
78 19 186 55 295 74 516 90 99 8 245 3 305 -10z m-1272 -25 c5 -33 -16 -41
-121 -47 -109 -6 -124 5 -46 35 107 40 162 44 167 12z m-34 -133 c21 -4 32
-15 39 -34 15 -45 -5 -57 -51 -31 -20 12 -55 24 -77 28 -95 18 -92 46 5 45 30
-1 68 -4 84 -8z m2172 -22 c3 -6 1 -16 -5 -22 -9 -9 -14 -8 -21 3 -9 15 -4 30
10 30 5 0 12 -5 16 -11z m-1216 -45 c0 -4 -18 -28 -40 -53 -87 -101 -75 -94
-148 -89 -64 3 -69 6 -115 49 -56 54 -53 61 39 83 59 14 264 22 264 10z m388
-55 c41 -21 52 -34 32 -41 -5 -1 -89 -2 -185 0 -136 2 -175 6 -175 16 0 12 51
39 95 50 48 12 190 -3 233 -25z m1171 0 c40 -21 53 -39 29 -39 -7 0 -93 -1
-191 -2 -186 -3 -205 2 -150 38 43 27 81 34 180 29 67 -3 102 -10 132 -26z
m-2588 -11 c90 -50 48 -66 -184 -67 -123 -1 -138 1 -135 15 3 17 91 69 131 78
52 11 144 -2 188 -26z m603 -44 c9 -3 16 -12 16 -20 0 -11 -17 -14 -74 -14
-76 0 -101 10 -69 29 20 11 102 15 127 5z m3126 -53 c0 -19 -60 -27 -107 -15
-44 12 -22 24 42 24 36 0 65 -4 65 -9z m-1252 -34 c-2 -6 -27 -35 -57 -62
l-53 -50 -82 -3 c-68 -2 -86 0 -113 17 -78 49 -18 92 142 101 61 4 123 7 138
8 19 1 27 -2 25 -11z m-864 -13 c9 -8 16 -26 16 -39 0 -22 -22 -54 -38 -56
-58 -6 -570 -2 -579 4 -15 11 -17 46 -3 81 l10 26 289 0 c250 0 292 -2 305
-16z m-1387 -26 c17 -13 17 -43 1 -55 -23 -18 -88 -25 -126 -12 -58 18 -104
70 -72 81 22 7 185 -4 197 -14z m-547 -13 c0 -16 -47 -55 -66 -55 -21 0 -44
41 -34 59 11 21 100 17 100 -4z m1198 6 c19 -1 23 -6 20 -28 -2 -23 -10 -30
-40 -37 -49 -12 -127 9 -138 38 -10 27 8 34 80 30 30 -1 65 -3 78 -3z m889
-36 c-9 -22 -37 -31 -48 -14 -6 10 -2 20 13 32 24 20 45 9 35 -18z m-2482 12
c32 -9 51 -19 53 -30 3 -15 -8 -17 -100 -17 -74 0 -110 4 -124 14 -23 17 -16
26 28 36 50 12 88 11 143 -3z m1302 -11 c3 -3 3 -12 0 -21 -8 -20 -86 -20
-113 -1 -16 12 -16 15 -4 19 8 3 22 8 30 11 16 6 79 0 87 -8z m1419 4 c8 0 14
-9 14 -20 0 -18 -7 -20 -65 -20 -58 0 -65 2 -65 19 0 22 28 31 74 25 16 -2 35
-4 42 -4z m-2086 -15 c0 -12 -14 -15 -64 -15 -36 0 -67 4 -70 9 -9 14 12 19
77 20 44 1 57 -2 57 -14z m2727 -2 c5 -15 -32 -26 -81 -25 -46 2 -51 5 -42 27
4 13 18 15 63 13 32 -2 58 -8 60 -15z m1145 -30 c24 -56 51 -123 69 -173 6
-19 20 -56 31 -82 32 -82 39 -78 -144 -78 -90 -1 -183 -5 -208 -11 -25 -6 -71
-13 -102 -16 -71 -7 -78 4 -48 79 20 48 111 235 135 278 28 48 33 50 142 50
l104 0 21 -47z m-4122 -82 c0 -5 -24 -24 -52 -42 -29 -17 -83 -61 -121 -97
l-68 -66 -57 57 c-32 31 -62 57 -68 57 -6 0 -19 9 -28 19 -9 10 -37 22 -60 25
-50 8 -82 28 -72 44 9 15 526 17 526 3z m684 3 c26 -10 18 -27 -32 -69 -27
-22 -66 -61 -87 -87 -21 -27 -43 -48 -50 -48 -6 0 -37 29 -69 65 -31 36 -77
79 -102 95 -24 17 -44 35 -44 40 0 11 358 14 384 4z m736 -6 c-1 -7 -19 -29
-42 -48 -42 -36 -63 -57 -96 -99 l-19 -24 -82 82 c-45 45 -79 86 -76 91 10 16
315 13 315 -2z m699 -2 c9 -11 0 -29 -45 -85 -31 -39 -61 -71 -67 -71 -6 0
-26 18 -45 41 -19 22 -52 52 -73 65 -64 40 -52 53 49 57 48 1 106 4 128 5 25
1 46 -3 53 -12z m702 -3 c7 -7 -9 -30 -50 -74 -34 -35 -61 -67 -61 -71 0 -24
-35 0 -85 57 -63 71 -65 91 -13 98 55 8 198 1 209 -10z m493 7 c21 -8 26 -16
26 -45 0 -46 -25 -47 -69 -1 -47 48 -24 72 43 46z m-870 -60 c71 -34 131 -93
185 -183 20 -34 40 -57 51 -57 23 0 64 42 106 107 72 112 174 155 315 132 71
-11 84 -17 123 -54 34 -33 48 -57 65 -112 21 -70 26 -105 16 -115 -3 -2 -27 0
-55 6 -47 9 -63 27 -40 41 6 3 10 28 10 55 0 64 -35 110 -86 110 -28 0 -38 -6
-58 -37 -21 -32 -24 -47 -20 -95 4 -57 4 -58 -33 -83 -21 -14 -42 -25 -47 -25
-13 0 -83 -48 -121 -82 -16 -16 -33 -28 -38 -28 -7 0 -26 12 -116 72 -88 59
-132 72 -258 76 -114 3 -127 2 -190 -23 -39 -16 -97 -51 -134 -81 -36 -30 -72
-54 -79 -54 -8 0 -23 8 -34 18 -12 10 -43 27 -71 39 -27 11 -70 29 -95 39 -63
27 -263 27 -300 2 -13 -10 -36 -18 -50 -18 -14 0 -30 -4 -35 -9 -6 -5 -43 -25
-83 -46 l-73 -37 -57 39 c-95 66 -149 93 -184 93 -35 0 -66 14 -52 22 5 3 26
11 46 17 31 10 40 19 49 51 14 47 7 79 -27 119 -53 63 -144 19 -158 -76 -6
-39 -3 -46 25 -75 l31 -33 -38 -3 c-67 -5 -198 -34 -219 -48 -11 -8 -25 -14
-32 -14 -14 0 -87 -45 -111 -67 -20 -19 -37 -16 -84 16 -79 53 -171 88 -274
105 -17 3 -75 -1 -130 -8 -130 -17 -228 -63 -311 -147 l-58 -59 -71 0 c-45 0
-75 5 -82 13 -5 6 -15 89 -22 182 -18 245 -18 230 7 233 25 4 102 -61 125
-106 45 -87 60 -103 92 -100 26 3 34 11 54 52 31 65 143 177 206 204 68 31
190 31 249 1 55 -29 137 -112 164 -169 55 -111 87 -107 168 20 39 62 92 117
140 144 57 33 155 51 196 37 18 -6 43 -11 56 -11 51 0 184 -128 213 -204 5
-14 22 -32 36 -38 25 -11 29 -10 56 22 15 19 33 50 38 68 9 34 71 102 123 135
39 25 191 38 260 22 92 -21 154 -71 222 -178 20 -32 43 -61 51 -64 33 -13 60
6 83 59 28 66 68 127 101 153 89 72 164 82 264 35z m-3679 -74 c61 -28 88 -57
83 -88 l-3 -23 -212 -3 c-199 -2 -213 -1 -213 16 0 32 32 64 94 93 81 38 176
40 251 5z m595 -174 l85 -7 11 -35 c7 -22 14 -190 18 -445 6 -382 8 -412 26
-447 22 -43 26 -98 8 -116 -9 -9 -87 -12 -288 -12 -240 0 -279 2 -299 16 l-24
17 7 491 c4 270 10 499 13 509 2 10 14 22 26 27 25 10 292 11 417 2z m4833
-31 c43 -5 80 -11 83 -14 7 -7 12 -86 24 -372 23 -583 23 -601 11 -623 -12
-22 -15 -22 -194 -20 l-182 3 -12 26 c-10 21 -11 122 -2 500 5 260 13 477 16
482 16 26 110 33 256 18z m-5384 -17 c28 -26 25 -390 -3 -381 -6 2 -27 36 -47
75 -37 73 -129 201 -186 259 -18 18 -33 37 -33 42 0 6 21 12 48 14 50 5 214
-2 221 -9z m-523 -5 c3 -6 -7 -25 -23 -42 -76 -81 -162 -216 -198 -312 -34
-89 -45 -82 -46 27 -2 182 3 313 13 326 14 16 244 17 254 1z m5542 -11 c14
-14 17 -924 3 -947 -5 -7 -13 -11 -18 -8 -5 3 -10 160 -12 348 -1 192 -7 353
-12 368 -13 33 -48 71 -76 82 -20 7 -23 16 -23 68 0 68 11 81 73 92 23 3 44 7
48 8 3 0 10 -4 17 -11z m-233 -78 c0 -67 -2 -75 -20 -78 -27 -3 -164 122 -150
137 6 5 37 12 70 14 107 7 100 12 100 -73z m-5137 33 c85 -64 184 -185 227
-278 65 -139 74 -186 81 -423 6 -173 4 -225 -6 -237 -19 -22 -711 -23 -730 0
-17 20 -8 229 14 315 27 109 57 203 77 242 10 20 19 42 19 48 0 20 96 179 149
247 48 61 102 109 124 112 5 1 25 -11 45 -26z m4067 -7 c67 -14 175 -77 175
-101 0 -13 -35 -15 -265 -15 -246 0 -265 1 -265 18 0 22 9 33 45 57 77 51 194
66 310 41z m807 -40 c35 -18 64 -41 66 -50 3 -13 -24 -16 -230 -18 -128 -2
-239 -1 -246 1 -21 6 -9 23 42 59 60 42 108 52 218 47 75 -4 96 -9 150 -39z
m-2277 6 c55 -21 135 -73 135 -87 0 -12 -247 -25 -467 -25 -82 0 -93 2 -93 18
0 21 70 66 136 88 103 34 210 37 289 6z m-762 -6 c68 -18 152 -66 152 -87 0
-12 -47 -14 -295 -14 -244 0 -295 2 -295 14 0 7 14 21 30 30 17 9 41 24 55 34
13 9 36 17 50 17 14 0 43 7 65 15 48 18 151 14 238 -9z m1582 -33 c25 -14 44
-30 42 -37 -5 -15 -486 -16 -488 -1 -3 18 94 59 156 66 33 4 102 5 152 2 75
-3 101 -9 138 -30z m1829 -139 c14 -14 16 -49 14 -272 l-3 -257 -25 0 c-25 0
-25 0 -31 116 -4 85 -10 122 -22 140 -9 13 -17 33 -17 44 0 36 -66 115 -128
152 -45 27 -52 28 -162 27 -107 -2 -119 -4 -176 -32 -61 -31 -124 -88 -166
-152 -28 -41 -57 -144 -60 -214 -3 -54 -28 -79 -28 -29 -1 43 -43 193 -68 238
-62 114 -174 173 -305 162 -79 -6 -129 -24 -198 -70 -93 -62 -157 -178 -166
-304 -8 -106 -40 -75 -59 57 -14 97 -46 160 -116 232 -37 37 -74 68 -83 68 -9
0 -34 9 -57 21 -37 19 -54 21 -157 17 -151 -6 -207 -30 -301 -128 -73 -76
-101 -133 -122 -250 -9 -54 -17 -75 -28 -75 -12 0 -16 20 -21 95 -8 131 -48
226 -123 290 -43 36 -134 70 -190 70 -89 0 -202 -48 -274 -116 -27 -26 -72
-91 -72 -105 0 -5 -9 -27 -20 -49 -11 -22 -20 -55 -20 -73 0 -76 -12 -127 -30
-127 -19 0 -30 42 -30 115 0 22 -7 53 -15 68 -8 16 -20 47 -26 69 -7 29 -30
59 -79 108 -62 61 -74 68 -136 83 -89 22 -138 21 -207 -2 -158 -55 -277 -217
-277 -377 0 -50 -4 -66 -16 -71 -25 -9 -32 13 -33 100 -2 107 -6 118 -52 145
-50 29 -59 53 -59 151 0 60 4 82 16 92 12 10 104 14 422 16 397 2 620 6 1257
19 171 3 740 9 1265 13 525 4 1003 8 1062 9 86 2 110 -1 122 -14z m-288 -140
c101 -34 140 -99 152 -258 5 -78 4 -113 -4 -124 -10 -13 -42 -17 -192 -20
-100 -3 -219 -1 -266 3 l-86 7 0 83 c0 122 39 199 135 265 44 30 128 58 181
59 17 1 53 -6 80 -15z m-1615 -8 c80 -19 132 -55 172 -118 26 -42 67 -178 67
-225 l0 -43 -345 0 c-393 0 -366 -7 -348 89 18 92 36 131 82 184 99 110 225
148 372 113z m-821 -6 c72 -21 123 -88 145 -191 18 -89 19 -161 3 -177 -9 -9
-81 -12 -263 -12 -268 0 -275 1 -275 50 1 50 39 167 69 213 69 102 203 151
321 117z m-752 -24 c53 -27 68 -42 105 -107 31 -54 54 -215 34 -236 -17 -17
-254 -27 -420 -18 -111 6 -140 10 -144 23 -11 26 17 160 42 205 30 53 69 91
132 128 41 24 59 28 126 28 63 1 87 -4 125 -23z m2426 -2 c88 -47 133 -120
151 -249 7 -44 10 -86 7 -93 -3 -10 -65 -12 -281 -10 l-276 3 3 80 c3 57 10
93 25 124 69 138 250 209 371 145z m-3060 -210 c18 -46 -7 -160 -27 -126 -9
14 -11 117 -3 131 10 16 23 14 30 -5z m4104 -250 c20 -6 15 -72 -7 -84 -13 -7
-667 -10 -2041 -10 -1777 0 -2021 2 -2026 15 -3 8 -7 29 -8 47 l-1 33 1980 5
c1862 5 2071 4 2103 -6z M3834 1333 c-51 -25 -73 -134 -35 -172 31 -31 88 -38
119 -14 53 39 36 170 -24 193 -14 6 -26 10 -27 9 -1 0 -16 -7 -33 -16z M4815
1341 c-56 -24 -84 -115 -48 -159 15 -19 28 -24 66 -24 71 0 97 21 97 78 0 39
-5 51 -34 80 -35 35 -47 39 -81 25z M5282 1330 c-37 -23 -52 -54 -52 -108 0
-43 7 -55 37 -71 66 -34 133 7 133 81 0 42 -30 108 -49 108 -5 0 -15 2 -23 5
-7 3 -28 -4 -46 -15z M3132 1323 c-21 -19 -62 -90 -62 -108 0 -6 14 -30 31
-53 26 -35 36 -42 66 -42 47 0 69 14 82 51 24 68 8 138 -36 158 -34 16 -58 14
-81 -6z M4584 1304 c-27 -28 -34 -44 -34 -75 0 -54 27 -79 84 -79 58 0 96 29
96 75 0 109 -79 151 -146 79z M2372 1323 c-20 -8 -65 -111 -58 -137 9 -35 64
-60 117 -53 48 6 64 22 73 73 5 24 1 48 -13 79 -19 44 -21 45 -63 44 -24 0
-49 -3 -56 -6z M2618 1310 c-14 -11 -33 -38 -42 -60 -14 -35 -14 -45 -2 -74
14 -33 54 -56 99 -56 31 0 86 39 93 65 7 30 -43 123 -71 131 -11 3 -27 8 -36
10 -9 2 -27 -5 -41 -16z M4003 1323 c-15 -5 -18 -90 -4 -111 5 -8 17 -12 27
-10 15 2 20 14 22 57 4 61 -9 79 -45 64z M4131 1309 c-36 -22 -67 -108 -51
-140 25 -46 125 -55 175 -15 29 23 29 24 15 66 -15 46 -57 94 -89 103 -11 2
-33 -4 -50 -14z M760 730 c-72 -6 -117 -29 -126 -65 -3 -12 -4 -92 -2 -178 3
-156 3 -157 31 -184 27 -27 31 -28 130 -28 185 1 201 22 185 251 -10 147 -23
191 -61 198 -47 10 -94 12 -157 6z m117 -102 c20 -21 32 -241 13 -253 -7 -4
-43 -10 -80 -13 -59 -4 -69 -2 -78 14 -13 26 -19 241 -7 253 26 24 127 23 152
-1z"/>
</g>
</svg>
